<?xml version="1.0" encoding="UTF-8" standalone="no"?>
<svg
   xmlns:dc="http://purl.org/dc/elements/1.1/"
   xmlns:cc="http://creativecommons.org/ns#"
   xmlns:rdf="http://www.w3.org/1999/02/22-rdf-syntax-ns#"
   xmlns:svg="http://www.w3.org/2000/svg"
   xmlns="http://www.w3.org/2000/svg"
   xmlns:sodipodi="http://sodipodi.sourceforge.net/DTD/sodipodi-0.dtd"
   xmlns:inkscape="http://www.inkscape.org/namespaces/inkscape"
   id="svg2"
   style="fill-rule:evenodd"
   version="1.1"
   viewBox="0 0 16.000003 15.999997"
   inkscape:version="1.0.2 (e86c870879, 2021-01-15)"
   sodipodi:docname="network-nat-symbolic.svg"
   width="16.000002"
   height="15.999998">
  <title
     id="title976">Network NAT logo</title>
  <defs
     id="defs10" />
  <sodipodi:namedview
     pagecolor="#ffffff"
     bordercolor="#666666"
     borderopacity="1"
     objecttolerance="10"
     gridtolerance="10"
     guidetolerance="10"
     inkscape:pageopacity="0"
     inkscape:pageshadow="2"
     inkscape:window-width="1366"
     inkscape:window-height="704"
     id="namedview8"
     showgrid="false"
     inkscape:zoom="7.4861356"
     inkscape:cx="13.768346"
     inkscape:cy="28.867112"
     inkscape:window-x="0"
     inkscape:window-y="27"
     inkscape:window-maximized="1"
     inkscape:current-layer="svg2"
     inkscape:document-rotation="0" />
  <g
     id="g851"
     transform="matrix(0.03846249,0,0,0.03848629,-0.07712236,-0.07697258)"
     style="fill:#474747;fill-opacity:0.8;fill-rule:evenodd">
    <path
       id="path2"
       style="color:#000000;font-style:normal;font-variant:normal;font-weight:normal;font-stretch:normal;font-size:medium;line-height:normal;font-family:sans-serif;font-variant-ligatures:normal;font-variant-position:normal;font-variant-caps:normal;font-variant-numeric:normal;font-variant-alternates:normal;font-variant-east-asian:normal;font-feature-settings:normal;font-variation-settings:normal;text-indent:0;text-align:start;text-decoration:none;text-decoration-line:none;text-decoration-style:solid;text-decoration-color:#000000;letter-spacing:normal;word-spacing:normal;text-transform:none;writing-mode:lr-tb;direction:ltr;text-orientation:mixed;dominant-baseline:auto;baseline-shift:baseline;text-anchor:start;white-space:normal;shape-padding:0;shape-margin:0;inline-size:0;clip-rule:nonzero;display:inline;overflow:visible;visibility:visible;opacity:1;isolation:auto;mix-blend-mode:normal;color-interpolation:sRGB;color-interpolation-filters:linearRGB;solid-color:#000000;solid-opacity:1;vector-effect:none;fill:#474747;fill-opacity:0.8;fill-rule:nonzero;stroke:none;stroke-linecap:butt;stroke-linejoin:miter;stroke-miterlimit:4;stroke-dasharray:none;stroke-dashoffset:0;stroke-opacity:1;color-rendering:auto;image-rendering:auto;shape-rendering:auto;text-rendering:auto;enable-background:accumulate;stop-color:#000000;stop-opacity:1"
       d="M 208.93359,2 C 94.41938,2.5872601 1.7055239,96.023554 2.0058594,210.48438 2.30618,324.93954 95.51336,417.73242 210,417.73242 c 114.48664,0 207.69382,-92.79288 207.99414,-207.24804 C 418.29448,96.023554 325.58062,2.5872601 211.06641,2 h -0.0332 -2.0664 z M 201,28.228516 V 129.01367 c -22.56526,-0.80866 -45.04819,-4.48133 -66.79883,-11.37109 14.2987,-34.015887 36.31538,-64.706868 64.91797,-89.320314 0.62561,-0.03678 1.25354,-0.06327 1.88086,-0.09375 z m 18,0 c 0.62732,0.03048 1.25525,0.05697 1.88086,0.09375 28.60259,24.613446 50.61927,55.304427 64.91797,89.320314 -21.75064,6.88976 -44.23357,10.56243 -66.79883,11.37109 z m -50.58984,4.53125 C 146.55804,55.821279 129.29348,82.571159 117.23828,111.54688 102.24391,105.57908 87.684542,98.135639 73.798828,89.171875 98.317654,61.54534 131.13492,41.442672 168.41016,32.759766 Z m 83.17968,0 c 37.27524,8.682906 70.09251,28.785574 94.61133,56.412109 -13.88571,8.963764 -28.44508,16.407205 -43.43945,22.375005 C 290.70652,82.571159 273.44196,55.821279 251.58984,32.759766 Z M 62.482422,103.27344 C 77.910177,113.38146 94.130086,121.7252 110.85938,128.35742 103.0312,151.60215 98.542089,176.05 97.578125,201 H 28.220703 c 1.754242,-36.42075 14.19586,-70.01474 34.261719,-97.72656 z m 295.035158,0 C 377.58344,130.98526 390.02506,164.57925 391.7793,201 h -69.35742 c -0.96397,-24.95 -5.45308,-49.39785 -13.28126,-72.64258 16.7293,-6.63222 32.9492,-14.97596 48.37696,-25.08398 z m -229.70899,31.16992 c 23.81496,7.63612 48.45547,11.71677 73.19141,12.54297 V 201 h -85.42188 c 0.94851,-22.85657 5.08949,-45.24561 12.23047,-66.55664 z m 164.38282,0 c 7.14098,21.31103 11.28195,43.70007 12.23047,66.55664 H 219 v -54.01367 c 24.73594,-0.8262 49.37645,-4.90685 73.19141,-12.54297 z M 28.234375,219 h 69.289063 c 0.772934,25.00435 5.110232,49.51246 12.779292,72.84375 -16.50412,6.58528 -32.50606,14.85166 -47.738277,24.82813 C 42.480646,289.00688 30.017137,255.44057 28.234375,219 Z m 87.289065,0 H 201 v 54.01367 c -24.93038,0.83269 -49.75911,4.99209 -73.74805,12.74219 C 120.26813,264.36005 116.28409,241.91016 115.52344,219 Z M 219,219 h 85.47656 c -0.76065,22.91016 -4.74469,45.36005 -11.72851,66.75586 C 268.75911,278.00576 243.93038,273.84636 219,273.01367 Z m 103.47656,0 h 69.28906 c -1.78276,36.44057 -14.24627,70.00688 -34.33007,97.67188 -15.23222,-9.97647 -31.23416,-18.24285 -47.73828,-24.82813 7.66906,-23.33129 12.00636,-47.8394 12.77929,-72.84375 z M 201,290.98633 v 100.52539 c -1.56668,-0.0758 -3.12961,-0.17214 -4.68555,-0.28711 -27.72187,-24.61223 -49.05118,-55.01109 -62.86133,-88.59766 21.98544,-7.04084 44.72022,-10.82259 67.54688,-11.64062 z m 18,0 c 22.82666,0.81803 45.56143,4.59978 67.54688,11.64062 -13.81015,33.58657 -35.13946,63.98543 -62.86133,88.59766 -1.55594,0.11497 -3.11887,0.21128 -4.68555,0.28711 z m -102.50977,17.73633 c 11.58417,28.42499 28.18226,54.74082 49.1836,77.59179 -36.07728,-8.98316 -67.858067,-28.68611 -91.771486,-55.55468 13.624037,-8.79291 27.892116,-16.13383 42.587886,-22.03711 z m 187.01954,0 c 14.69576,5.90328 28.96385,13.2442 42.58789,22.03711 -23.91342,26.86857 -55.69421,46.57152 -91.77149,55.55468 21.00134,-22.85097 37.59943,-49.1668 49.1836,-77.59179 z" />
  </g>
  <g
     id="g875"
     transform="matrix(1.0002154,0,0,1.0002151,-10.856381,-5.8025279)"
     style="opacity:1;fill:#474747;fill-opacity:1;stroke:none;stroke-width:0.499887;stroke-linejoin:miter;stroke-miterlimit:4;stroke-dasharray:none;stroke-dashoffset:0;stroke-opacity:1">
    <path
       style="fill:#474747;fill-opacity:1;stroke:none;stroke-width:0.499887;stroke-linecap:butt;stroke-linejoin:miter;stroke-miterlimit:4;stroke-dasharray:none;stroke-dashoffset:0;stroke-opacity:1"
       d="m 18.187375,12.80128 v -1.75 h -1.833333 l 2.5,-3 2.5,3 h -1.833333 v 1.75 z"
       id="path835"
       sodipodi:nodetypes="cccccccc" />
    <path
       style="fill:#474747;fill-opacity:1;stroke:none;stroke-width:0.499887;stroke-linecap:butt;stroke-linejoin:miter;stroke-miterlimit:4;stroke-dasharray:none;stroke-dashoffset:0;stroke-opacity:1"
       d="m 13.104042,14.46795 h 2.25 v 1.664892 l 3,-2.331562 -3,-2.5 v 1.83333 h -2.25 z"
       id="path835-6"
       sodipodi:nodetypes="cccccccc" />
    <path
       style="fill:#474747;fill-opacity:1;stroke:none;stroke-width:0.499887;stroke-linecap:butt;stroke-linejoin:miter;stroke-miterlimit:4;stroke-dasharray:none;stroke-dashoffset:0;stroke-opacity:1"
       d="m 24.604042,14.46795 h -2.25 v 1.664892 l -3,-2.331562 3,-2.5 v 1.83333 h 2.25 v 0.66667 z"
       id="path835-5"
       sodipodi:nodetypes="ccccccccc" />
    <path
       style="fill:#474747;fill-opacity:1;stroke:none;stroke-width:0.499887;stroke-linecap:butt;stroke-linejoin:miter;stroke-miterlimit:4;stroke-dasharray:none;stroke-dashoffset:0;stroke-opacity:1"
       d="m 18.187375,14.80128 v 1.75 h -1.833333 l 2.5,3 2.5,-3 h -1.833333 v -1.75 z"
       id="path835-6-6"
       sodipodi:nodetypes="cccccccc" />
  </g>
  <metadata
     id="metadata5">
    <rdf:RDF>
      <cc:Work>
        <dc:format>image/svg+xml</dc:format>
        <dc:type
           rdf:resource="http://purl.org/dc/dcmitype/StillImage" />
        <cc:license
           rdf:resource="http://creativecommons.org/publicdomain/zero/1.0/" />
        <dc:publisher>
          <cc:Agent
             rdf:about="http://openclipart.org/">
            <dc:title></dc:title>
          </cc:Agent>
        </dc:publisher>
        <dc:title>Network NAT logo</dc:title>
        <dc:date>2020-02-06</dc:date>
        <dc:description />
        <dc:source></dc:source>
        <dc:creator>
          <cc:Agent>
            <dc:title>Luc Bournaud (aka DevilishSpirits)</dc:title>
          </cc:Agent>
        </dc:creator>
        <dc:subject>
          <rdf:Bag />
        </dc:subject>
      </cc:Work>
      <cc:License
         rdf:about="http://creativecommons.org/publicdomain/zero/1.0/">
        <cc:permits
           rdf:resource="http://creativecommons.org/ns#Reproduction" />
        <cc:permits
           rdf:resource="http://creativecommons.org/ns#Distribution" />
        <cc:permits
           rdf:resource="http://creativecommons.org/ns#DerivativeWorks" />
      </cc:License>
    </rdf:RDF>
  </metadata>
</svg>
