<?xml version="1.0" encoding="UTF-8" standalone="no"?>
<svg
   xmlns:dc="http://purl.org/dc/elements/1.1/"
   xmlns:cc="http://creativecommons.org/ns#"
   xmlns:rdf="http://www.w3.org/1999/02/22-rdf-syntax-ns#"
   xmlns:svg="http://www.w3.org/2000/svg"
   xmlns="http://www.w3.org/2000/svg"
   xmlns:sodipodi="http://sodipodi.sourceforge.net/DTD/sodipodi-0.dtd"
   xmlns:inkscape="http://www.inkscape.org/namespaces/inkscape"
   id="svg2"
   style="fill-rule:evenodd"
   version="1.1"
   viewBox="0 0 48.000003 47.999998"
   inkscape:version="1.0.2 (e86c870879, 2021-01-15)"
   sodipodi:docname="network-nat (copie).svg"
   width="48"
   height="48">
  <defs
     id="defs10" />
  <sodipodi:namedview
     pagecolor="#ffffff"
     bordercolor="#666666"
     borderopacity="1"
     objecttolerance="10"
     gridtolerance="10"
     guidetolerance="10"
     inkscape:pageopacity="0"
     inkscape:pageshadow="2"
     inkscape:window-width="1366"
     inkscape:window-height="704"
     id="namedview8"
     showgrid="false"
     inkscape:zoom="7.6075015"
     inkscape:cx="20.489539"
     inkscape:cy="31.257092"
     inkscape:window-x="0"
     inkscape:window-y="27"
     inkscape:window-maximized="1"
     inkscape:current-layer="g875"
     inkscape:document-rotation="0" />
  <path
     id="path3001"
     style="fill:#f9f9f9;fill-rule:nonzero;stroke-width:1;stroke-miterlimit:4;stroke-dasharray:none"
     d="m 48,24.00312 a 24,23.99688 0 1 1 -48,0 24,23.99688 0 1 1 48,0 z" />
  <path
     id="path16"
     style="fill:#37abc8;stroke-width:0.0919543"
     d="m 17.277374,15.095084 c 1.99762,0.629135 -2.273142,2.712405 -0.902303,1.292692 0.361203,-0.465281 -0.134462,-1.033566 0.758485,-1.13216 l 0.05771,-0.113469 0.08611,-0.04703 z M 13.553165,6.9464349 C 15.009723,6.5054056 15.129318,5.7915515 16.596126,5.1033013 16.899205,4.3836268 17.5894,4.1175041 18.173929,3.7426161 16.853252,3.989837 17.910273,2.7681951 16.578009,3.8090507 17.147676,2.8164336 14.772544,3.4903973 16.449727,3.464029 15.621642,4.4106119 13.872151,5.9329167 12.564561,6.6984197 12.33725,6.5376233 14.23213,4.9509116 12.585162,6.2834355 12.066472,7.2363977 10.451929,7.5707192 11.550524,6.4042538 12.339436,5.980627 12.040968,4.9940361 12.661566,5.5636732 13.685861,5.1180581 13.452435,5.0084402 14.447813,4.4763125 13.608265,4.2740676 12.498781,5.1933121 11.622173,5.4140472 13.938138,3.4921027 10.158752,5.0891912 9.6727727,6.2314049 8.8204967,7.0981774 6.7927794,8.87808 8.7907585,7.3394309 9.2640892,7.5969405 11.730687,4.6850541 11.482711,6.2103279 10.934256,6.7164106 10.729652,7.1516782 10.093684,7.4868228 9.0673755,8.5928206 12.135683,6.5120198 10.247628,8.0643086 8.992378,8.9072409 9.175569,10.572851 7.9239797,11.36387 7.1020981,11.620204 6.8728739,13.757093 6.653538,13.004524 5.5207191,11.951762 8.9706916,11.042395 7.0013442,11.132288 6.8516084,10.739733 6.7494007,11.738435 6.3116793,11.126409 5.7702877,11.871188 6.4353115,12.864098 5.3817249,12.66791 4.3957695,12.676728 6.696178,11.549242 4.910672,11.8691 4.6309767,11.734761 4.1808273,12.465988 3.7319199,13.070665 2.4440002,14.021157 2.0200635,15.465093 1.5205437,17.077026 0.06947424,21.759614 0.11861221,27.975413 1.9722616,32.383207 c 4.078513,9.698939 12.8929024,15.52424 22.9839514,15.094558 -0.94926,-0.393643 -3.1147,-1.765704 -1.127327,-2.641619 -1.124034,-0.794752 -0.597293,-1.99764 -2.137989,-2.785866 1.019078,-0.885791 0.22222,-2.186421 -1.060529,-1.907099 -1.14087,0.173143 -1.751753,-1.208648 -2.943957,-0.614465 -1.678181,0.112292 -3.505697,-0.488476 -5.03061,-1.290899 -1.439722,-1.393757 -3.0225576,-3.128125 -2.9154058,-5.079671 0.3787328,-1.054349 0.6155388,-1.732517 0.3640008,-2.73892 1.21005,-1.080776 1.733452,-2.797036 3.379425,-2.785866 -0.299557,-1.38285 3.587775,-2.987199 0.986959,-3.073329 -0.04458,-1.351984 0.131284,-1.76885 0.676745,-3.102432 -0.16754,-2.296039 2.329232,0.598651 2.919617,-0.728464 1.190465,-1.365771 -2.132591,-2.881785 0.487204,-2.507338 1.008189,0.0147 1.351787,-0.884205 0.03299,-0.478274 -1.018895,-0.0729 -1.925059,0.165499 -0.620671,-0.696482 -1.052933,-0.308041 1.198061,-0.740134 0.08587,-1.45531 -0.06012,-0.410311 0.462454,-0.578398 -0.08479,-0.529659 -0.279372,-0.385706 0.80719,-0.896432 -0.13252,-1.119579 0.498284,-1.440436 0.437454,-0.261037 0.768476,-0.456403 0.402948,-0.08054 0.915408,0.454551 0.262127,1.055466 0.563437,1.031067 1.298899,2.205558 0.962897,2.923263 0.596313,-0.481037 1.742325,-0.871182 2.068995,-1.323265 -0.874943,-1.655351 1.762731,-2.463537 0.589155,-0.970892 -0.473066,1.110348 0.866535,0.935971 -0.0065,0.284848 0.710548,0.164911 1.161094,-0.571078 0.533972,-1.360774 -0.114156,-1.105263 -1.359382,0.951786 -1.619896,-0.350048 -0.812479,-1.971507 2.132409,-2.255179 2.487352,-3.9332833 -0.705157,0.1563875 1.669764,-2.2042638 2.697353,-1.1046155 1.13474,0.05497 3.370181,1.4405248 1.03006,1.1600572 0.0686,-0.0779 0.355182,1.2644126 1.149838,1.0942686 0.898148,0.214003 -0.610662,-0.652505 0.185404,-0.579308 -0.168747,-0.6560031 0.593494,-1.0868025 -0.219071,-1.6227516 1.345019,-0.2001873 0.244557,0.552646 1.137852,0.9653669 C 30.789076,10.357408 29.318024,7.566545 30.656406,8.6198061 32.34813,6.810478 28.658142,8.5028098 28.591528,6.8542782 27.842752,5.5700227 29.033491,4.614621 29.022823,6.3806487 29.345199,7.6606712 30.795986,7.2907217 31.785964,7.47771 32.22848,7.567368 29.468172,6.2660629 30.366375,5.8338818 31.00584,5.6298731 31.254099,5.8348519 30.861501,5.425835 30.595137,4.954763 30.05409,4.3967962 29.799051,3.9082335 28.1173,2.96071 31.878566,3.8905962 30.587556,2.9086789 30.022009,2.9263162 31.046128,1.8925744 29.62274,2.125744 28.613303,2.7886254 26.768494,1.0165715 28.718406,2.0181544 30.23005,2.1424998 27.148472,0.72308112 26.399146,0.63207089 23.990123,0.33957999 22.080069,0.58150963 19.730158,0.88634689 18.440046,1.0536105 18.657642,1.991257 19.621829,1.7942739 19.361174,2.5470779 18.052077,2.3431574 19.4532,2.4076818 c -0.879772,0.3759169 1.808758,0.4862697 0.582424,1.2670587 0.723741,0.3446101 1.866861,0.9104257 1.08862,1.0556717 C 22.67853,4.693079 20.01357,5.9978531 19.940094,6.6544731 18.885969,7.0778059 17.982001,8.2164333 17.55422,7.7851636 18.339983,8.3953083 16.793384,8.5054261 16.368329,8.2660244 15.315119,7.883023 13.813905,8.9394297 12.778173,9.6631903 10.93556,10.952825 12.186828,7.6065236 13.552744,6.9481104 Z M 35.415278,44.06785 c 0.58623,-1.223081 1.675255,-2.047524 2.805876,-2.945427 1.445672,-0.536625 -0.965181,2.066456 -1.772796,2.384727 -0.321958,0.223998 -0.641068,0.471483 -1.03308,0.560759 z m 0.27587,-1.741187 c -0.15627,1.745538 -2.64117,1.792101 -3.43643,3.076563 -0.8044,0.406401 -2.5245,1.553993 -0.493581,0.807892 5.19605,-1.90904 7.956266,-4.651281 9.631701,-6.38712 3.830354,-3.968028 6.24011,-9.975261 6.101483,-16.514829 -0.182137,-0.478362 -1.065838,-4.679472 -1.189002,-2.685977 -0.01442,2.107227 -0.06262,4.223039 0.111331,6.319096 -0.596057,2.802974 -1.446949,-3.275251 -1.610835,-1.732251 -0.610768,-0.149038 -0.679874,-0.47507 -1.438897,-0.853163 -0.554541,0.850429 -1.791466,1.915302 -2.566961,1.274849 -0.534573,1.650472 -1.904653,0.23605 -2.419456,-0.159621 -1.30146,1.114259 1.84774,2.370588 2.195182,1.505226 0.419251,-1.287871 0.16033,-1.012312 0.95594,-0.530187 1.011026,0.216355 0.168188,2.167195 -0.138376,3.054222 -0.826125,1.118021 -1.240609,2.702969 -2.612346,3.6151 -0.780398,1.030802 -1.789724,1.58968 -1.779659,-0.261919 -0.927759,-1.355953 -2.126367,-1.660526 -2.877706,-3.196588 -0.0809,-1.145653 -1.036465,-1.45681 -1.303382,-0.759006 -0.646687,-0.428948 0.97049,1.855773 1.357278,2.169223 0.594912,1.709529 1.68349,2.892044 3.375487,3.388251 0.138347,2.295656 3.681019,-3.533614 2.776047,-0.521105 -0.644482,2.245654 -2.387245,3.847593 -3.57158,5.781649 -0.690857,0.798221 -1.639934,1.742804 -1.066662,2.60946 z m -3.448416,-0.557144 c 0.746269,0.02646 1.730614,-1.266677 0.790101,-1.156824 -0.639276,0.0147 -0.619777,0.709827 -0.790101,1.156824 z M 23.759863,5.6923103 c 0.609935,-0.9031942 1.188634,0.1546234 0.603917,0.2069484 0.727134,0.8386698 -0.621972,-0.2810265 -0.440768,1.0545252 -0.212508,-0.07937 -1.149473,-2.1057581 -0.163155,-1.2616206 z m 1.448323,5.1538657 c 0.145469,0.917364 -1.655399,1.527273 -0.137993,2.228722 -0.158065,0.940351 -0.88974,2.562632 -1.681112,2.59191 -1.061627,0.770236 1.299082,0.67805 1.677907,0.08525 0.872976,0.368127 0.673561,-0.392761 0.847408,-0.86983 -0.378312,-1.07184 1.276116,0.09936 0.352174,-1.167935 -0.94112,0.820621 0.59967,-0.906957 1.203184,-0.639512 -0.275869,-0.722761 -2.252459,1.149798 -1.916825,-0.348284 -1.283432,-0.856837 2.037517,-2.42982 -0.344787,-1.880467 z m 4.35229,8.875879 c 0.08196,0.511579 -0.140259,1.356423 -0.537457,1.993377 0.959784,1.169875 2.857942,-0.890819 4.326672,0.0015 1.797961,-1.138628 -2.121976,-2.808118 -2.456056,-0.996027 -0.748668,-0.579897 0.432924,-1.401987 -0.781764,-1.240191 -0.29921,-0.05203 -0.30265,-0.547355 -0.551456,0.241342 z m 7.234117,2.128393 c 1.200165,0.660941 2.492202,-0.59189 1.033263,-1.366682 -0.633902,-0.823972 -0.821761,-1.504286 -1.68605,-1.867709 -0.437006,-0.180785 0.948071,-2.1368 -0.539773,-1.238162 -1.035367,0.477744 -0.52708,1.896369 0.03696,2.337692 1.467447,0.918599 1.31729,0.395437 1.155603,2.134861 z m -14.758665,2.507249 c -0.984492,0.631105 -0.915404,-0.910602 -0.513283,-1.361684 -0.07346,-0.508287 0.78644,-1.828642 0.478831,-0.320917 -0.22431,0.463547 0.371717,1.125604 0.03446,1.682631 z m -6.06909,0.557232 c 0.690571,1.681426 3.8934,-0.229583 5.580733,0.679167 0.812291,-0.305954 1.338794,-0.133752 1.053301,0.747101 -1.169511,0.427154 0.357636,1.04944 0.745501,0.941615 1.13108,0.155212 1.410534,1.189365 2.643547,1.318355 0.965367,0.290728 0.261126,-2.212672 1.96212,-1.383966 0.36004,0.575604 1.163472,0.284847 1.834562,0.44244 1.133183,0.38744 1.727504,-0.992177 2.806149,-0.800456 0.370841,-0.857042 0.263921,-3.439076 0.126781,-3.051988 -0.655892,0.601443 -1.73153,0.65033 -2.61262,1.08254 -0.449322,-0.342846 -0.874877,0.42545 -1.020817,-0.786286 -0.307465,-0.667937 -0.367388,-1.860419 -1.601685,-0.720762 -0.361806,0.07878 1.140597,0.908074 0.829665,1.340343 -0.757496,-0.500145 -0.68281,-0.09848 -0.822585,0.609821 -0.700718,-0.427213 -1.251224,-2.292805 -2.241202,-3.129535 -1.065108,-0.509845 -1.150662,-1.542441 -1.899898,-1.730576 -0.581442,1.54882 2.547379,2.599553 2.049872,3.048843 -1.247199,-0.771029 0.583849,1.448197 -1.065838,1.384143 0.01089,1.182898 -2.245323,-0.754362 -0.250825,-0.199893 1.418585,-0.845401 -1.13849,-1.845985 -1.602415,-2.662666 -0.444508,-1.818471 -1.620079,0.905781 -2.523953,-0.606941 -0.09444,0.803159 -1.966511,1.419065 -1.78332,2.642883 -0.668025,0.633251 -1.219838,0.853486 -2.206982,0.835818 z m 0.275899,-14.765587 c 0.05418,0.0147 0.826716,-1.3227051 0.724162,-0.5223971 1.841147,0.2372265 -0.09865,2.0046651 -1.068949,0.8009841 z" />
  <g
     id="g875"
     transform="matrix(3.0006461,0,0,3.0006451,-32.569139,-17.407582)"
     style="opacity:1;fill:#000000;fill-opacity:0.80000001;stroke:none;stroke-width:0.499887;stroke-linejoin:miter;stroke-miterlimit:4;stroke-dasharray:none;stroke-dashoffset:0;stroke-opacity:1">
    <path
       style="fill:#474747;fill-opacity:0.89999998;stroke:none;stroke-width:0.499887;stroke-linecap:butt;stroke-linejoin:miter;stroke-miterlimit:4;stroke-dasharray:none;stroke-dashoffset:0;stroke-opacity:1"
       d="m 18.187375,12.468019 v -1.75 H 16.85275 l 2.001292,-2.5839074 1.997847,2.5838534 -1.33118,5.4e-5 v 1.75 z"
       id="path835"
       sodipodi:nodetypes="cccccccc" />
    <path
       style="fill:#474747;fill-opacity:0.89999998;stroke:none;stroke-width:0.499887;stroke-linecap:butt;stroke-linejoin:miter;stroke-miterlimit:4;stroke-dasharray:none;stroke-dashoffset:0;stroke-opacity:1"
       d="m 13.104042,14.46795 h 2.25 v 1.33118 l 2.165231,-1.99785 -2.165231,-2.00129 v 1.33462 h -2.25 z"
       id="path835-6"
       sodipodi:nodetypes="cccccccc" />
    <path
       style="fill:#474747;fill-opacity:0.89999998;stroke:none;stroke-width:0.499887;stroke-linecap:butt;stroke-linejoin:miter;stroke-miterlimit:4;stroke-dasharray:none;stroke-dashoffset:0;stroke-opacity:1"
       d="m 24.604042,14.46795 h -2.25 v 1.33118 l -2.168676,-1.99785 2.168676,-2.00129 v 1.33462 h 2.25 v 0.66667 z"
       id="path835-5"
       sodipodi:nodetypes="ccccccccc" />
    <path
       style="fill:#474747;fill-opacity:0.89999998;stroke:none;stroke-width:0.499887;stroke-linecap:butt;stroke-linejoin:miter;stroke-miterlimit:4;stroke-dasharray:none;stroke-dashoffset:0;stroke-opacity:1"
       d="m 18.187375,15.132607 v 1.75 H 16.85275 l 2.001292,2.582402 1.997847,-2.582456 -1.33118,5.4e-5 v -1.75 z"
       id="path835-6-6"
       sodipodi:nodetypes="cccccccc" />
    <path
       style="color:#000000;font-style:normal;font-variant:normal;font-weight:normal;font-stretch:normal;font-size:medium;line-height:normal;font-family:sans-serif;font-variant-ligatures:normal;font-variant-position:normal;font-variant-caps:normal;font-variant-numeric:normal;font-variant-alternates:normal;font-variant-east-asian:normal;font-feature-settings:normal;font-variation-settings:normal;text-indent:0;text-align:start;text-decoration:none;text-decoration-line:none;text-decoration-style:solid;text-decoration-color:#000000;letter-spacing:normal;word-spacing:normal;text-transform:none;writing-mode:lr-tb;direction:ltr;text-orientation:mixed;dominant-baseline:auto;baseline-shift:baseline;text-anchor:start;white-space:normal;shape-padding:0;shape-margin:0;inline-size:0;clip-rule:nonzero;display:inline;overflow:visible;visibility:visible;isolation:auto;mix-blend-mode:normal;color-interpolation:sRGB;color-interpolation-filters:linearRGB;solid-color:#000000;solid-opacity:1;vector-effect:none;fill:#474747;fill-opacity:1;fill-rule:nonzero;stroke:none;stroke-width:0.499887;stroke-linecap:round;stroke-linejoin:miter;stroke-miterlimit:4;stroke-dasharray:none;stroke-dashoffset:0;stroke-opacity:1;color-rendering:auto;image-rendering:auto;shape-rendering:auto;text-rendering:auto;enable-background:accumulate;stop-color:#000000"
       d="m 18.856011,5.80128 c -4.406434,0 -8.001969,3.59553 -8.001969,8.00197 0,4.40643 3.595535,7.99459 8.001969,7.99459 4.406433,0 7.994586,-3.58816 7.994586,-7.99459 0,-4.40644 -3.588153,-8.00197 -7.994586,-8.00197 z m 0,2.00049 c 3.325552,0 6.001476,2.67593 6.001476,6.00148 0,3.32555 -2.675924,6.00147 -6.001476,6.00147 -3.325553,10e-6 -6.001477,-2.67592 -6.001477,-6.00147 0,-3.32555 2.675924,-6.00148 6.001477,-6.00148 z"
       id="path844" />
  </g>
  <metadata
     id="metadata5">
    <rdf:RDF>
      <cc:Work>
        <dc:format>image/svg+xml</dc:format>
        <dc:type
           rdf:resource="http://purl.org/dc/dcmitype/StillImage" />
        <cc:license
           rdf:resource="http://creativecommons.org/licenses/publicdomain/" />
        <dc:publisher>
          <cc:Agent
             rdf:about="http://openclipart.org/">
            <dc:title>Openclipart</dc:title>
          </cc:Agent>
        </dc:publisher>
        <dc:title>Earth</dc:title>
        <dc:date>2012-12-17T08:31:20</dc:date>
        <dc:description>Simple Earth planet with focus on Europe. </dc:description>
        <dc:source>https://openclipart.org/detail/173813/earth-by-snagator-173813</dc:source>
        <dc:creator>
          <cc:Agent>
            <dc:title>snagator</dc:title>
          </cc:Agent>
        </dc:creator>
        <dc:subject>
          <rdf:Bag>
            <rdf:li>europe in earth</rdf:li>
            <rdf:li>planet earth</rdf:li>
          </rdf:Bag>
        </dc:subject>
      </cc:Work>
      <cc:License
         rdf:about="http://creativecommons.org/licenses/publicdomain/">
        <cc:permits
           rdf:resource="http://creativecommons.org/ns#Reproduction" />
        <cc:permits
           rdf:resource="http://creativecommons.org/ns#Distribution" />
        <cc:permits
           rdf:resource="http://creativecommons.org/ns#DerivativeWorks" />
      </cc:License>
    </rdf:RDF>
  </metadata>
</svg>
